name rise30.3154peak39.0474fall46.5389.mot
datacolumns 19
datarows 33
range 17.62493900000000 17.67826700000000
endheader
time	ground_force1_vx	ground_force1_vy	ground_force1_vz	ground_force1_px	ground_force1_py	ground_force1_pz	ground_force2_vx	ground_force2_vy	ground_force2_vz	ground_force2_px	ground_force2_py	ground_force2_pz	ground_torque1_x	ground_torque1_y	ground_torque1_z	ground_torque2_x	ground_torque2_y	ground_torque2_z	
17.62493900000000	7.72722900000000	699.50018699999998	41.64733100000000	0.28340500000000	0.00000000000000	0.14218100000000	0.00000000000000	0.00000000000000	0.00000000000000	0.00000000000000	0.00000000000000	0.00000000000000	0.00000000000000	20.41108100000000	0.00000000000000	0.00000000000000	0.00000000000000	0.00000000000000	
17.62660000000000	7.33507000000000	700.39910899999995	41.60711200000000	0.28271200000000	0.00000000000000	0.14210200000000	0.00000000000000	0.00000000000000	0.00000000000000	0.00000000000000	0.00000000000000	0.00000000000000	0.00000000000000	20.45888800000000	0.00000000000000	0.00000000000000	0.00000000000000	0.00000000000000	
17.62827300000000	6.93283000000000	701.33523200000002	41.57466500000000	0.28201000000000	0.00000000000000	0.14202300000000	0.00000000000000	0.00000000000000	0.00000000000000	0.00000000000000	0.00000000000000	0.00000000000000	0.00000000000000	20.51417300000000	0.00000000000000	0.00000000000000	0.00000000000000	0.00000000000000	
17.62993500000000	6.52023900000000	702.30815199999995	41.54976500000000	0.28130000000000	0.00000000000000	0.14194500000000	0.00000000000000	0.00000000000000	0.00000000000000	0.00000000000000	0.00000000000000	0.00000000000000	0.00000000000000	20.57678900000000	0.00000000000000	0.00000000000000	0.00000000000000	0.00000000000000	
17.63160500000000	6.09704900000000	703.31752400000005	41.53218000000000	0.28057900000000	0.00000000000000	0.14186800000000	0.00000000000000	0.00000000000000	0.00000000000000	0.00000000000000	0.00000000000000	0.00000000000000	0.00000000000000	20.64658500000000	0.00000000000000	0.00000000000000	0.00000000000000	0.00000000000000	
17.63327000000000	5.66304300000000	704.36305700000003	41.52167800000000	0.27984700000000	0.00000000000000	0.14179200000000	0.00000000000000	0.00000000000000	0.00000000000000	0.00000000000000	0.00000000000000	0.00000000000000	0.00000000000000	20.72340300000000	0.00000000000000	0.00000000000000	0.00000000000000	0.00000000000000	
17.63493700000000	5.21802600000000	705.44451400000003	41.51802500000000	0.27910300000000	0.00000000000000	0.14171600000000	0.00000000000000	0.00000000000000	0.00000000000000	0.00000000000000	0.00000000000000	0.00000000000000	0.00000000000000	20.80708000000000	0.00000000000000	0.00000000000000	0.00000000000000	0.00000000000000	
17.63660700000000	4.76183200000000	706.56171099999995	41.52098700000000	0.27834600000000	0.00000000000000	0.14164100000000	0.00000000000000	0.00000000000000	0.00000000000000	0.00000000000000	0.00000000000000	0.00000000000000	0.00000000000000	20.89744900000000	0.00000000000000	0.00000000000000	0.00000000000000	0.00000000000000	
17.63826900000000	4.29432100000000	707.71451300000001	41.53033000000000	0.27757600000000	0.00000000000000	0.14156700000000	0.00000000000000	0.00000000000000	0.00000000000000	0.00000000000000	0.00000000000000	0.00000000000000	0.00000000000000	20.99433900000000	0.00000000000000	0.00000000000000	0.00000000000000	0.00000000000000	
17.63993300000000	3.81538100000000	708.90282700000000	41.54582200000000	0.27679300000000	0.00000000000000	0.14149400000000	0.00000000000000	0.00000000000000	0.00000000000000	0.00000000000000	0.00000000000000	0.00000000000000	0.00000000000000	21.09757500000000	0.00000000000000	0.00000000000000	0.00000000000000	0.00000000000000	
17.64160300000000	3.32492400000000	710.12660600000004	41.56723300000000	0.27599500000000	0.00000000000000	0.14142200000000	0.00000000000000	0.00000000000000	0.00000000000000	0.00000000000000	0.00000000000000	0.00000000000000	0.00000000000000	21.20698000000000	0.00000000000000	0.00000000000000	0.00000000000000	0.00000000000000	
17.64327400000000	2.82289200000000	711.38583500000004	41.59433700000000	0.27518300000000	0.00000000000000	0.14135100000000	0.00000000000000	0.00000000000000	0.00000000000000	0.00000000000000	0.00000000000000	0.00000000000000	0.00000000000000	21.32237400000000	0.00000000000000	0.00000000000000	0.00000000000000	0.00000000000000	
17.64494100000000	2.30925000000000	712.68053599999996	41.62691200000000	0.27435500000000	0.00000000000000	0.14128100000000	0.00000000000000	0.00000000000000	0.00000000000000	0.00000000000000	0.00000000000000	0.00000000000000	0.00000000000000	21.44357500000000	0.00000000000000	0.00000000000000	0.00000000000000	0.00000000000000	
17.64660200000000	1.78399400000000	714.01075300000002	41.66473900000000	0.27351200000000	0.00000000000000	0.14121200000000	0.00000000000000	0.00000000000000	0.00000000000000	0.00000000000000	0.00000000000000	0.00000000000000	0.00000000000000	21.57039900000000	0.00000000000000	0.00000000000000	0.00000000000000	0.00000000000000	
17.64826500000000	1.24714200000000	715.37655600000005	41.70760700000000	0.27265400000000	0.00000000000000	0.14114400000000	0.00000000000000	0.00000000000000	0.00000000000000	0.00000000000000	0.00000000000000	0.00000000000000	0.00000000000000	21.70266200000000	0.00000000000000	0.00000000000000	0.00000000000000	0.00000000000000	
17.64994000000000	0.69874000000000	716.77802699999995	41.75531000000000	0.27177900000000	0.00000000000000	0.14107800000000	0.00000000000000	0.00000000000000	0.00000000000000	0.00000000000000	0.00000000000000	0.00000000000000	0.00000000000000	21.84018100000000	0.00000000000000	0.00000000000000	0.00000000000000	0.00000000000000	
17.65160700000000	0.13886000000000	718.21525999999994	41.80764900000000	0.27088800000000	0.00000000000000	0.14101200000000	0.00000000000000	0.00000000000000	0.00000000000000	0.00000000000000	0.00000000000000	0.00000000000000	0.00000000000000	21.98276900000000	0.00000000000000	0.00000000000000	0.00000000000000	0.00000000000000	
17.65327200000000	-0.43240200000000	719.68834700000002	41.86443400000000	0.26998100000000	0.00000000000000	0.14094800000000	0.00000000000000	0.00000000000000	0.00000000000000	0.00000000000000	0.00000000000000	0.00000000000000	0.00000000000000	22.13024400000000	0.00000000000000	0.00000000000000	0.00000000000000	0.00000000000000	
17.65493800000000	-1.01492200000000	721.19738199999995	41.92548200000000	0.26905700000000	0.00000000000000	0.14088500000000	0.00000000000000	0.00000000000000	0.00000000000000	0.00000000000000	0.00000000000000	0.00000000000000	0.00000000000000	22.28241900000000	0.00000000000000	0.00000000000000	0.00000000000000	0.00000000000000	
17.65660200000000	-1.60855300000000	722.74244399999998	41.99062000000000	0.26811800000000	0.00000000000000	0.14082400000000	0.00000000000000	0.00000000000000	0.00000000000000	0.00000000000000	0.00000000000000	0.00000000000000	0.00000000000000	22.43911400000000	0.00000000000000	0.00000000000000	0.00000000000000	0.00000000000000	
17.65827300000000	-2.21312300000000	724.32359499999995	42.05968400000000	0.26716200000000	0.00000000000000	0.14076400000000	0.00000000000000	0.00000000000000	0.00000000000000	0.00000000000000	0.00000000000000	0.00000000000000	0.00000000000000	22.60014400000000	0.00000000000000	0.00000000000000	0.00000000000000	0.00000000000000	
17.65993900000000	-2.82843400000000	725.94087100000002	42.13252000000000	0.26619000000000	0.00000000000000	0.14070500000000	0.00000000000000	0.00000000000000	0.00000000000000	0.00000000000000	0.00000000000000	0.00000000000000	0.00000000000000	22.76533000000000	0.00000000000000	0.00000000000000	0.00000000000000	0.00000000000000	
17.66160600000000	-3.45426600000000	727.59427700000003	42.20898600000000	0.26520200000000	0.00000000000000	0.14064800000000	0.00000000000000	0.00000000000000	0.00000000000000	0.00000000000000	0.00000000000000	0.00000000000000	0.00000000000000	22.93449200000000	0.00000000000000	0.00000000000000	0.00000000000000	0.00000000000000	
17.66326700000000	-4.09037300000000	729.28377799999998	42.28894900000000	0.26419800000000	0.00000000000000	0.14059300000000	0.00000000000000	0.00000000000000	0.00000000000000	0.00000000000000	0.00000000000000	0.00000000000000	0.00000000000000	23.10745200000000	0.00000000000000	0.00000000000000	0.00000000000000	0.00000000000000	
17.66493900000000	-4.73648500000000	731.00929099999996	42.37229000000000	0.26317900000000	0.00000000000000	0.14053800000000	0.00000000000000	0.00000000000000	0.00000000000000	0.00000000000000	0.00000000000000	0.00000000000000	0.00000000000000	23.28403400000000	0.00000000000000	0.00000000000000	0.00000000000000	0.00000000000000	
17.66660100000000	-5.39231200000000	732.77067799999998	42.45889800000000	0.26214500000000	0.00000000000000	0.14048600000000	0.00000000000000	0.00000000000000	0.00000000000000	0.00000000000000	0.00000000000000	0.00000000000000	0.00000000000000	23.46406100000000	0.00000000000000	0.00000000000000	0.00000000000000	0.00000000000000	
17.66826800000000	-6.05753700000000	734.56774199999995	42.54867900000000	0.26109600000000	0.00000000000000	0.14043500000000	0.00000000000000	0.00000000000000	0.00000000000000	0.00000000000000	0.00000000000000	0.00000000000000	0.00000000000000	23.64736000000000	0.00000000000000	0.00000000000000	0.00000000000000	0.00000000000000	
17.66993400000000	-6.73182100000000	736.40021600000000	42.64154700000000	0.26003300000000	0.00000000000000	0.14038500000000	0.00000000000000	0.00000000000000	0.00000000000000	0.00000000000000	0.00000000000000	0.00000000000000	0.00000000000000	23.83376000000000	0.00000000000000	0.00000000000000	0.00000000000000	0.00000000000000	
17.67160600000000	-7.41480500000000	738.26775799999996	42.73743000000000	0.25895600000000	0.00000000000000	0.14033800000000	0.00000000000000	0.00000000000000	0.00000000000000	0.00000000000000	0.00000000000000	0.00000000000000	0.00000000000000	24.02308800000000	0.00000000000000	0.00000000000000	0.00000000000000	0.00000000000000	
17.67327400000000	-8.10610400000000	740.16994299999999	42.83627000000000	0.25786500000000	0.00000000000000	0.14029100000000	0.00000000000000	0.00000000000000	0.00000000000000	0.00000000000000	0.00000000000000	0.00000000000000	0.00000000000000	24.21517600000000	0.00000000000000	0.00000000000000	0.00000000000000	0.00000000000000	
17.67493400000000	-8.80531500000000	742.10626100000002	42.93801900000000	0.25676200000000	0.00000000000000	0.14024700000000	0.00000000000000	0.00000000000000	0.00000000000000	0.00000000000000	0.00000000000000	0.00000000000000	0.00000000000000	24.40985300000000	0.00000000000000	0.00000000000000	0.00000000000000	0.00000000000000	
17.67659900000000	-9.51201000000000	744.07610499999998	43.04264300000000	0.25564700000000	0.00000000000000	0.14020400000000	0.00000000000000	0.00000000000000	0.00000000000000	0.00000000000000	0.00000000000000	0.00000000000000	0.00000000000000	24.60695300000000	0.00000000000000	0.00000000000000	0.00000000000000	0.00000000000000	
17.67826700000000	-10.22574400000000	746.07876899999997	43.15012100000000	0.25452000000000	0.00000000000000	0.14016300000000	0.00000000000000	0.00000000000000	0.00000000000000	0.00000000000000	0.00000000000000	0.00000000000000	0.00000000000000	24.80630800000000	0.00000000000000	0.00000000000000	0.00000000000000	0.00000000000000	
